<svg width="32" height="32" viewBox="0 0 32 32" fill="none" xmlns="http://www.w3.org/2000/svg">
  <!-- Outer shield/badge shape: gold (gov代表) -->
  <path d="M16 2L28 8V16C28 23 22.5 29 16 31C9.5 29 4 23 4 16V8L16 2Z" fill="#1B2A4A" stroke="#C9A84C" stroke-width="1"/>
  <!-- Shield inner border: gold -->
  <path d="M16 5L25 9.5V16C25 21.5 20.5 26.5 16 28C11.5 26.5 7 21.5 7 16V9.5L16 5Z" fill="#1B2A4A" stroke="#C9A84C" stroke-width="0.5" opacity="0.5"/>
  <!-- Document icon (paperwork) -->
  <rect x="10" y="9" width="12" height="14" rx="1.5" fill="#C9A84C" opacity="0.9"/>
  <rect x="13" y="13" width="6" height="1.2" rx="0.6" fill="#1B2A4A"/>
  <rect x="13" y="16" width="6" height="1.2" rx="0.6" fill="#1B2A4A"/>
  <rect x="13" y="19" width="4" height="1.2" rx="0.6" fill="#1B2A4A"/>
  <!-- Checkmark (easy) -->
  <path d="M21 12L15 20L11.5 17" stroke="#1B2A4A" stroke-width="1.8" stroke-linecap="round" stroke-linejoin="round"/>
</svg>
