<svg xmlns="http://www.w3.org/2000/svg" width="400" height="500" viewBox="0 0 400 500">
  <rect width="400" height="500" fill="#f8f6f0" rx="8"/>
  <rect x="20" y="20" width="360" height="460" rx="6" fill="none" stroke="#C9A84C" stroke-width="1.5" stroke-dasharray="5,5"/>
  <text x="200" y="60" text-anchor="middle" font-family="system-ui" font-size="13" font-weight="700" fill="#1B2A4A">董事變更通知清單</text>
  <line x1="60" y1="80" x2="340" y2="80" stroke="#C9A84C" stroke-width="1"/>
  <rect x="60" y="95" width="280" height="22" rx="3" fill="#e8f5e9"/>
  <text x="75" y="111" font-family="system-ui" font-size="10" fill="#2e7d32">☑ 公司註冊處 ND2A — 已提交</text>
  <rect x="60" y="122" width="280" height="22" rx="3" fill="#fff8e1"/>
  <text x="75" y="138" font-family="system-ui" font-size="10" fill="#f57f17">☐ 銀行 — 更新簽署授權</text>
  <rect x="60" y="149" width="280" height="22" rx="3" fill="#fff8e1"/>
  <text x="75" y="165" font-family="system-ui" font-size="10" fill="#f57f17">☐ 公司秘書 — 已通知</text>
  <rect x="60" y="176" width="280" height="22" rx="3" fill="#fff8e1"/>
  <text x="75" y="192" font-family="system-ui" font-size="10" fill="#f57f17">☐ 核數師 — 已通知</text>
  <rect x="60" y="203" width="280" height="22" rx="3" fill="#fff8e1"/>
  <text x="75" y="219" font-family="system-ui" font-size="10" fill="#f57f17">☐ 董事名冊 — 已更新</text>
  <rect x="60" y="230" width="280" height="22" rx="3" fill="#fff8e1"/>
  <text x="75" y="246" font-family="system-ui" font-size="10" fill="#f57f17">☐ SCR — 已評估</text>
  <rect x="60" y="257" width="280" height="22" rx="3" fill="#fff8e1"/>
  <text x="75" y="273" font-family="system-ui" font-size="10" fill="#f57f17">☐ 公司印章/文件交接</text>
  <text x="200" y="340" text-anchor="middle" font-family="system-ui" font-size="11" fill="#999">📋 用呢份清單確保所有事項處理妥當</text>
</svg>
