<svg xmlns="http://www.w3.org/2000/svg" width="400" height="500" viewBox="0 0 400 500">
  <rect width="400" height="500" fill="#f8f6f0" rx="8"/>
  <rect x="20" y="20" width="360" height="460" rx="6" fill="none" stroke="#C9A84C" stroke-width="1.5" stroke-dasharray="5,5"/>
  <text x="200" y="70" text-anchor="middle" font-family="system-ui" font-size="14" font-weight="700" fill="#1B2A4A">IRC3113 取消商業登記通知書</text>
  <line x1="60" y1="90" x2="340" y2="90" stroke="#C9A84C" stroke-width="1"/>
  <text x="60" y="120" font-family="system-ui" font-size="11" fill="#666">致：商業登記署</text>
  <text x="60" y="150" font-family="system-ui" font-size="11" fill="#666">商業登記號碼：</text>
  <line x1="200" y1="155" x2="340" y2="155" stroke="#ccc" stroke-width="0.5"/>
  <text x="60" y="180" font-family="system-ui" font-size="11" fill="#666">公司名稱：</text>
  <line x1="200" y1="185" x2="340" y2="185" stroke="#ccc" stroke-width="0.5"/>
  <text x="60" y="215" font-family="system-ui" font-size="11" fill="#555">本人代表上述公司通知 貴署，該公司已於</text>
  <text x="60" y="240" font-family="system-ui" font-size="11" fill="#555">[日期] 結束營業。</text>
  <text x="60" y="275" font-family="system-ui" font-size="11" fill="#666">結業日期：</text>
  <line x1="200" y1="280" x2="320" y2="280" stroke="#ccc" stroke-width="0.5"/>
  <text x="60" y="310" font-family="system-ui" font-size="11" fill="#666">通訊地址：</text>
  <line x1="200" y1="315" x2="340" y2="315" stroke="#ccc" stroke-width="0.5"/>
  <text x="60" y="350" font-family="system-ui" font-size="11" fill="#666">聯絡電話：</text>
  <line x1="200" y1="355" x2="320" y2="355" stroke="#ccc" stroke-width="0.5"/>
  <text x="60" y="395" font-family="system-ui" font-size="11" fill="#333" font-weight="600">簽署：</text>
  <line x1="60" y1="425" x2="240" y2="425" stroke="#333" stroke-width="1"/>
  <text x="60" y="445" font-family="system-ui" font-size="10" fill="#999">董事/公司秘書簽署 · 日期：</text>
</svg>
