<svg xmlns="http://www.w3.org/2000/svg" width="400" height="500" viewBox="0 0 400 500">
  <rect width="400" height="500" fill="#f8f6f0" rx="8"/>
  <rect x="20" y="20" width="360" height="460" rx="6" fill="none" stroke="#C9A84C" stroke-width="1.5" stroke-dasharray="5,5"/>
  <text x="200" y="55" text-anchor="middle" font-family="system-ui" font-size="13" font-weight="700" fill="#1B2A4A">重要控制人登記冊（SCR）</text>
  <line x1="60" y1="75" x2="340" y2="75" stroke="#C9A84C" stroke-width="1"/>
  <text x="60" y="100" font-family="system-ui" font-size="10" fill="#666">公司：ABC Limited | 編號：________</text>
  <rect x="55" y="110" width="290" height="18" rx="3" fill="#1B2A4A" opacity="0.1"/>
  <text x="68" y="123" font-family="system-ui" font-size="9" font-weight="600" fill="#1B2A4A">姓名/名稱</text>
  <text x="150" y="123" font-family="system-ui" font-size="9" font-weight="600" fill="#1B2A4A">身份證/編號</text>
  <text x="245" y="123" font-family="system-ui" font-size="9" font-weight="600" fill="#1B2A4A">控制性質</text>
  <line x1="55" y1="128" x2="345" y2="128" stroke="#1B2A4A" stroke-width="0.3"/>
  <text x="68" y="146" font-family="system-ui" font-size="9" fill="#555">陳大文</text>
  <text x="150" y="146" font-family="system-ui" font-size="9" fill="#555">Z123456(7)</text>
  <text x="245" y="146" font-family="system-ui" font-size="9" fill="#555">持股 60%</text>
  <line x1="55" y1="152" x2="345" y2="152" stroke="#ccc" stroke-width="0.3"/>
  <text x="68" y="170" font-family="system-ui" font-size="9" fill="#555">李小明</text>
  <text x="150" y="170" font-family="system-ui" font-size="9" fill="#555">A123456(8)</text>
  <text x="245" y="170" font-family="system-ui" font-size="9" fill="#555">持股 40%</text>
  <line x1="55" y1="176" x2="345" y2="176" stroke="#ccc" stroke-width="0.3"/>
  <text x="60" y="210" font-family="system-ui" font-size="11" fill="#666">存放地址：註冊辦事處</text>
  <text x="60" y="240" font-family="system-ui" font-size="11" fill="#666">指定代表：[姓名]</text>
  <text x="60" y="270" font-family="system-ui" font-size="11" fill="#666">編制日期：________</text>
  <rect x="60" y="300" width="280" height="25" rx="4" fill="#fff3e0"/>
  <text x="200" y="318" text-anchor="middle" font-family="system-ui" font-size="10" fill="#e65100">⚠️ 變更後 7 天內要更新</text>
</svg>
