<svg xmlns="http://www.w3.org/2000/svg" width="400" height="500" viewBox="0 0 400 500">
  <rect width="400" height="500" fill="#f8f6f0" rx="8"/>
  <rect x="20" y="20" width="360" height="460" rx="6" fill="none" stroke="#C9A84C" stroke-width="1.5" stroke-dasharray="5,5"/>
  <text x="200" y="55" text-anchor="middle" font-family="system-ui" font-size="13" font-weight="700" fill="#1B2A4A">SCR 更新紀錄表</text>
  <line x1="60" y1="75" x2="340" y2="75" stroke="#C9A84C" stroke-width="1"/>
  <text x="60" y="100" font-family="system-ui" font-size="10" fill="#666">公司：ABC Limited</text>
  <rect x="55" y="110" width="290" height="18" rx="3" fill="#1B2A4A" opacity="0.1"/>
  <text x="68" y="123" font-family="system-ui" font-size="9" font-weight="600" fill="#1B2A4A">日期</text>
  <text x="145" y="123" font-family="system-ui" font-size="9" font-weight="600" fill="#1B2A4A">變更內容</text>
  <text x="270" y="123" font-family="system-ui" font-size="9" font-weight="600" fill="#1B2A4A">更新人</text>
  <line x1="55" y1="128" x2="345" y2="128" stroke="#1B2A4A" stroke-width="0.3"/>
  <text x="68" y="146" font-family="system-ui" font-size="9" fill="#555">01/01/26</text>
  <text x="145" y="146" font-family="system-ui" font-size="9" fill="#555">建立初始登記冊</text>
  <text x="270" y="146" font-family="system-ui" font-size="9" fill="#555">陳大文</text>
  <line x1="55" y1="152" x2="345" y2="152" stroke="#ccc" stroke-width="0.3"/>
  <text x="68" y="170" font-family="system-ui" font-size="9" fill="#555">15/03/26</text>
  <text x="145" y="170" font-family="system-ui" font-size="9" fill="#555">股份轉讓—更新持股</text>
  <text x="270" y="170" font-family="system-ui" font-size="9" fill="#555">李小明</text>
  <line x1="55" y1="176" x2="345" y2="176" stroke="#ccc" stroke-width="0.3"/>
  <text x="60" y="210" font-family="system-ui" font-size="11" fill="#666">備註：</text>
  <text x="60" y="235" font-family="system-ui" font-size="11" fill="#555">股權變動後 7 天內必須更新 SCR</text>
  <rect x="60" y="270" width="280" height="30" rx="4" fill="#e8f5e9"/>
  <text x="200" y="290" text-anchor="middle" font-family="system-ui" font-size="10" fill="#2e7d32">建議每季度審查一次</text>
  <rect x="60" y="315" width="280" height="30" rx="4" fill="#ffebee"/>
  <text x="200" y="335" text-anchor="middle" font-family="system-ui" font-size="10" fill="#c62828">違規罰款最高 HK$25,000 + 每日 HK$700</text>
</svg>
