<svg xmlns="http://www.w3.org/2000/svg" viewBox="0 0 800 600" font-family="'Noto Sans TC','Microsoft JhengHei',sans-serif">
  <rect width="800" height="600" fill="#FAFAFA"/>
  <rect x="30" y="20" width="740" height="560" fill="white" stroke="#CCC" stroke-width="1" rx="4"/>
  <!-- Header -->
  <rect x="30" y="20" width="740" height="60" fill="#1B2A4A" rx="4"/>
  <text x="400" y="58" text-anchor="middle" fill="#C9A84C" font-size="20" font-weight="bold">股份賣出單 Sold Note</text>
  <!-- Reference -->
  <text x="50" y="110" fill="#666" font-size="11">參考編號：SN-2026-001</text>
  <text x="550" y="110" fill="#666" font-size="11">日期：2026 年 6 月 1 日</text>
  <!-- Seller Info -->
  <rect x="50" y="130" width="700" height="90" fill="#F8F9FA" stroke="#E0E0E0" stroke-width="1" rx="3"/>
  <text x="60" y="155" fill="#1B2A4A" font-size="13" font-weight="bold">賣方資料（Transferor）</text>
  <text x="60" y="178" fill="#333" font-size="12">姓名/公司名稱：陳大明 Tai Ming Chan</text>
  <text x="60" y="198" fill="#333" font-size="12">地址：九龍觀塘開源道 72 號溢財中心 12/F 1208 室</text>
  <text x="60" y="218" fill="#333" font-size="12">持股數量：5,000 股 普通股（佔 50%）</text>
  <!-- Buyer Info -->
  <rect x="50" y="235" width="700" height="90" fill="#F8F9FA" stroke="#E0E0E0" stroke-width="1" rx="3"/>
  <text x="60" y="260" fill="#1B2A4A" font-size="13" font-weight="bold">買方資料（Transferee）</text>
  <text x="60" y="283" fill="#333" font-size="12">姓名/公司名稱：李小欣 Siu Yan Li</text>
  <text x="60" y="303" fill="#333" font-size="12">地址：香港北角英皇道 250 號北角城中心 8/F 806 室</text>
  <text x="60" y="323" fill="#333" font-size="12">將接收股數：5,000 股 普通股</text>
  <!-- Transaction Details -->
  <rect x="50" y="340" width="700" height="100" fill="#FFF8E7" stroke="#C9A84C" stroke-width="1" rx="3"/>
  <text x="60" y="365" fill="#1B2A4A" font-size="13" font-weight="bold">交易詳情</text>
  <text x="60" y="388" fill="#333" font-size="12">股份類別：普通股 Ordinary Shares</text>
  <text x="60" y="408" fill="#333" font-size="12">每股面值：HK$ 1.00</text>
  <text x="60" y="428" fill="#333" font-size="12">每股作價：HK$ 10.00 ｜ 總代價：HK$ 50,000.00</text>
  <!-- Signatures -->
  <rect x="50" y="455" width="700" height="55" fill="#F8F9FA" stroke="#E0E0E0" stroke-width="1" rx="3"/>
  <text x="60" y="478" fill="#333" font-size="12">賣方簽署：<tspan fill="#C9A84C" font-style="italic">陳大明</tspan> 　　日期：2026-06-01</text>
  <text x="400" y="478" fill="#333" font-size="12">買方簽署：<tspan fill="#C9A84C" font-style="italic">李小欣</tspan> 　　日期：2026-06-01</text>
  <!-- Watermark -->
  <text x="680" y="570" fill="#CCC" font-size="10" text-anchor="end">示範範例 · GovFlow</text>
</svg>
